<svg id="图层_1" data-name="图层 1" xmlns="http://www.w3.org/2000/svg" xmlns:xlink="http://www.w3.org/1999/xlink" viewBox="0 0 175.13 48.06"><defs><style>.cls-1{fill:#004c82;}.cls-2{fill:url(#未命名的渐变_17);}.cls-3{fill:url(#未命名的渐变_17-2);}.cls-4{fill:#1c2a55;}</style><linearGradient id="未命名的渐变_17" x1="81.38" y1="99.67" x2="81.38" y2="51.72" gradientUnits="userSpaceOnUse"><stop offset="0" stop-color="#2078b6"/><stop offset="0.02" stop-color="#267db9"/><stop offset="0.13" stop-color="#3e8fc5"/><stop offset="0.26" stop-color="#509dce"/><stop offset="0.4" stop-color="#5da7d4"/><stop offset="0.6" stop-color="#65acd8"/><stop offset="1" stop-color="#67aed9"/></linearGradient><linearGradient id="未命名的渐变_17-2" x1="127.93" y1="99.67" x2="127.93" y2="51.62" xlink:href="#未命名的渐变_17"/></defs><title>TODO标志2</title><circle class="cls-1" cx="47.33" cy="41.18" r="6.88"/><circle class="cls-1" cx="115.14" cy="41.18" r="6.88"/><rect class="cls-1" y="0.11" width="51.69" height="15.96" rx="4.84" ry="4.84"/><path class="cls-2" d="M81.82,51.72h-17a20,20,0,0,1,8.57,16h0V92.14a7.56,7.56,0,0,0,7.54,7.53h.88a7.56,7.56,0,0,0,7.54-7.53V67.68h0a20,20,0,0,1,8.57-16Z" transform="translate(-55.54 -51.61)"/><path class="cls-1" d="M136.6,51.68l-12.51-.07a7.68,7.68,0,0,0-7.72,7.68v33a7.29,7.29,0,0,0,7.24,7.29l13,.07c16.9,0,26.83-10.91,26.83-24.11h0C163.43,62.37,153.5,51.68,136.6,51.68Zm9.92,24a8,8,0,0,1-8,8h-4.73a7.75,7.75,0,0,1-2.27-.34V68a7.75,7.75,0,0,1,2.27-.34h4.73a8,8,0,0,1,8,8Z" transform="translate(-55.54 -51.61)"/><path class="cls-3" d="M131.55,87.94h0V51.66l-7.44,0a7.68,7.68,0,0,0-7.72,7.68V92.38a7.22,7.22,0,0,0,7.18,7.22l13,.07c1,0,2,0,2.88-.11A13.33,13.33,0,0,1,131.55,87.94Z" transform="translate(-55.54 -51.61)"/><path class="cls-4" d="M188.41,75.28h-3V73.17H194v2.11h-3v9h-2.51Z" transform="translate(-55.54 -51.61)"/><path class="cls-4" d="M199.14,84.49c-3.29,0-5.24-2.5-5.24-5.67,0-3.34,2.15-5.84,5.42-5.84,3.42,0,5.29,2.57,5.29,5.64,0,3.67-2.2,5.87-5.46,5.87Zm.13-2c1.7,0,2.68-1.61,2.68-3.79,0-2-.95-3.72-2.68-3.72s-2.71,1.69-2.71,3.77,1,3.74,2.69,3.74Z" transform="translate(-55.54 -51.61)"/><path class="cls-4" d="M205.85,73.33a20.75,20.75,0,0,1,3.38-.25,7.29,7.29,0,0,1,4.58,1.19,4.91,4.91,0,0,1,1.88,4.2A5.69,5.69,0,0,1,213.86,83a8,8,0,0,1-5.16,1.44,22.19,22.19,0,0,1-2.85-.16Zm2.51,9.07a4.63,4.63,0,0,0,.87,0c2.3,0,3.8-1.24,3.8-3.9A3.21,3.21,0,0,0,209.5,75a5.24,5.24,0,0,0-1.14.1Z" transform="translate(-55.54 -51.61)"/><path class="cls-4" d="M221.66,84.49c-3.29,0-5.24-2.5-5.24-5.67,0-3.34,2.15-5.84,5.42-5.84s5.29,2.57,5.29,5.64c0,3.67-2.2,5.87-5.45,5.87Zm.13-2c1.71,0,2.68-1.61,2.68-3.79,0-2-.94-3.72-2.68-3.72s-2.71,1.69-2.71,3.77,1,3.74,2.7,3.74Z" transform="translate(-55.54 -51.61)"/><path class="cls-4" d="M185.4,88.49a17.08,17.08,0,0,1,3-.25,5.36,5.36,0,0,1,3.17.71,2.38,2.38,0,0,1,1.16,2.1,2.58,2.58,0,0,1-1.85,2.4v0a2.8,2.8,0,0,1,2.24,2.74,3,3,0,0,1-1,2.3c-.8.69-2.1,1-4.15,1a19.15,19.15,0,0,1-2.5-.15Zm2,4.4h1c1.42,0,2.2-.66,2.2-1.61s-.8-1.53-2.08-1.53a5.53,5.53,0,0,0-1.16.08Zm0,5.1a6.34,6.34,0,0,0,1.07.05c1.31,0,2.48-.48,2.48-1.86s-1.14-1.82-2.54-1.82h-1Z" transform="translate(-55.54 -51.61)"/><path class="cls-4" d="M194.51,88.33h2v9.43h4.58v1.71h-6.61Z" transform="translate(-55.54 -51.61)"/><path class="cls-4" d="M206.16,99.65C203,99.65,201,97.23,201,94c0-3.41,2.16-5.84,5.3-5.84s5.16,2.47,5.16,5.64c0,3.74-2.26,5.87-5.3,5.87Zm.1-1.64c2,0,3.07-1.82,3.07-4.15,0-2.1-1-4.08-3.07-4.08s-3.09,1.93-3.09,4.15S204.29,98,206.24,98Z" transform="translate(-55.54 -51.61)"/><path class="cls-4" d="M220.8,99.13a7.21,7.21,0,0,1-2.89.5c-3.54,0-5.69-2.21-5.69-5.6a5.61,5.61,0,0,1,6-5.87,6.41,6.41,0,0,1,2.69.48l-.43,1.62a5.45,5.45,0,0,0-2.18-.43c-2.26,0-3.9,1.42-3.9,4.1a3.64,3.64,0,0,0,3.89,4,6.14,6.14,0,0,0,2.21-.4Z" transform="translate(-55.54 -51.61)"/><path class="cls-4" d="M222.12,88.33h2v5.12h.05c.26-.43.54-.83.81-1.21l2.92-3.91h2.5l-3.84,4.74,4.09,6.4h-2.38l-3.14-5.11-1,1.19v3.92h-2Z" transform="translate(-55.54 -51.61)"/></svg>