<svg id="图层_1" data-name="图层 1" xmlns="http://www.w3.org/2000/svg" xmlns:xlink="http://www.w3.org/1999/xlink" viewBox="0 0 118.83 62.16"><defs><style>.cls-1{fill:#004c82;}.cls-2{fill:url(#未命名的渐变_17);}.cls-3{fill:url(#未命名的渐变_17-2);}.cls-4{fill:#1c2a55;}</style><linearGradient id="未命名的渐变_17" x1="114.66" y1="72.58" x2="114.66" y2="26.11" gradientUnits="userSpaceOnUse"><stop offset="0" stop-color="#2078b6"/><stop offset="0.02" stop-color="#267db9"/><stop offset="0.13" stop-color="#3e8fc5"/><stop offset="0.26" stop-color="#509dce"/><stop offset="0.4" stop-color="#5da7d4"/><stop offset="0.6" stop-color="#65acd8"/><stop offset="1" stop-color="#67aed9"/></linearGradient><linearGradient id="未命名的渐变_17-2" x1="159.77" y1="72.58" x2="159.77" y2="26.01" xlink:href="#未命名的渐变_17"/></defs><title>TODO标志</title><circle class="cls-1" cx="46.45" cy="39.91" r="6.66"/><circle class="cls-1" cx="112.17" cy="39.91" r="6.66"/><rect class="cls-1" x="0.58" y="0.11" width="50.1" height="15.46" rx="5.03" ry="5.03"/><path class="cls-2" d="M115.09,26.11H98.61a19.36,19.36,0,0,1,8.3,15.46h0v23.7a7.33,7.33,0,0,0,7.31,7.31h.85a7.32,7.32,0,0,0,7.3-7.31V41.57h0a19.36,19.36,0,0,1,8.3-15.46Z" transform="translate(-89.04 -26)"/><path class="cls-1" d="M168.18,26.07,156.05,26a7.45,7.45,0,0,0-7.48,7.44v32a7.06,7.06,0,0,0,7,7.06l12.58.07c16.38,0,26-10.57,26-23.36h0C194.19,36.42,184.56,26.07,168.18,26.07Zm9.61,23.26a7.75,7.75,0,0,1-7.73,7.73h-4.58a7.67,7.67,0,0,1-2.21-.33V41.84a7.67,7.67,0,0,1,2.21-.33h4.58a7.76,7.76,0,0,1,7.73,7.74Z" transform="translate(-89.04 -26)"/><path class="cls-3" d="M163.28,61.21h0V26.05l-7.22,0a7.43,7.43,0,0,0-7.48,7.44V65.51a7,7,0,0,0,7,7l12.65.07c1,0,1.89,0,2.8-.12A12.9,12.9,0,0,1,163.28,61.21Z" transform="translate(-89.04 -26)"/><path class="cls-4" d="M90.91,82.44H89V81.12h5.32v1.32H92.47v5.61H90.91Z" transform="translate(-89.04 -26)"/><path class="cls-4" d="M104.3,88.16A3.24,3.24,0,0,1,101,84.64,3.36,3.36,0,0,1,104.41,81a3.23,3.23,0,0,1,3.29,3.5c0,2.29-1.37,3.65-3.39,3.65Zm.08-1.24c1.06,0,1.67-1,1.67-2.35s-.59-2.32-1.67-2.32-1.68,1-1.68,2.35.62,2.32,1.67,2.32Z" transform="translate(-89.04 -26)"/><path class="cls-4" d="M115.2,81.23a11.73,11.73,0,0,1,2.1-.16,4.54,4.54,0,0,1,2.85.74,3.06,3.06,0,0,1,1.17,2.61,3.54,3.54,0,0,1-1.14,2.81,5,5,0,0,1-3.21.89,13.68,13.68,0,0,1-1.77-.1Zm1.56,5.64a3,3,0,0,0,.54,0,2.16,2.16,0,0,0,2.36-2.43,2,2,0,0,0-2.19-2.19,3.4,3.4,0,0,0-.71.06Z" transform="translate(-89.04 -26)"/><path class="cls-4" d="M131.75,88.16a3.23,3.23,0,0,1-3.25-3.52A3.35,3.35,0,0,1,131.87,81a3.22,3.22,0,0,1,3.28,3.5c0,2.29-1.36,3.65-3.39,3.65Zm.08-1.24c1.06,0,1.67-1,1.67-2.35s-.59-2.32-1.67-2.32-1.68,1-1.68,2.35.63,2.32,1.67,2.32Z" transform="translate(-89.04 -26)"/><path class="cls-4" d="M151.35,81.23a9.67,9.67,0,0,1,1.85-.16,3.38,3.38,0,0,1,2,.44,1.48,1.48,0,0,1,.72,1.31,1.6,1.6,0,0,1-1.15,1.49v0a1.73,1.73,0,0,1,1.39,1.71,1.81,1.81,0,0,1-.65,1.42,3.89,3.89,0,0,1-2.58.65,12.69,12.69,0,0,1-1.55-.09ZM152.6,84h.65c.88,0,1.36-.41,1.36-1s-.49-.95-1.29-.95a3.51,3.51,0,0,0-.72,0Zm0,3.17a3.14,3.14,0,0,0,.67,0c.81,0,1.54-.3,1.54-1.17s-.71-1.13-1.58-1.13h-.63Z" transform="translate(-89.04 -26)"/><path class="cls-4" d="M163.73,81.12H165V87h2.84v1.06h-4.11Z" transform="translate(-89.04 -26)"/><path class="cls-4" d="M177.7,88.16a3.2,3.2,0,0,1-3.19-3.52,3.33,3.33,0,0,1,3.3-3.63,3.19,3.19,0,0,1,3.2,3.5c0,2.33-1.41,3.65-3.3,3.65Zm.06-1c1.23,0,1.91-1.13,1.91-2.57S179,82,177.76,82s-1.92,1.2-1.92,2.58.7,2.53,1.91,2.53Z" transform="translate(-89.04 -26)"/><path class="cls-4" d="M193.53,87.84a4.49,4.49,0,0,1-1.8.31,3.26,3.26,0,0,1-3.53-3.48A3.48,3.48,0,0,1,191.91,81a4,4,0,0,1,1.67.3l-.27,1a3.25,3.25,0,0,0-1.35-.27,2.31,2.31,0,0,0-2.43,2.55A2.26,2.26,0,0,0,192,87.09a3.86,3.86,0,0,0,1.37-.24Z" transform="translate(-89.04 -26)"/><path class="cls-4" d="M201.08,81.12h1.25v3.19h0c.17-.27.34-.51.5-.75l1.82-2.44h1.55l-2.38,2.95,2.54,4h-1.48L203,84.87l-.63.74v2.44h-1.25Z" transform="translate(-89.04 -26)"/></svg>